<svg width="42" height="40" viewBox="0 0 42 40" fill="none" xmlns="http://www.w3.org/2000/svg">
<path fill-rule="evenodd" clip-rule="evenodd" d="M5.65878 2.42076L14.6397 0C15.0484 1.50904 15.4466 3.01809 15.8448 4.52713C16.1278 5.57508 16.4002 6.62302 16.6832 7.67097C16.7356 7.87008 17.1652 8.89707 17.0604 9.0857C16.9556 9.27433 15.8553 9.41056 15.6562 9.46296L12.5123 10.2908L8.01666 11.496C7.22022 8.47789 6.4168 5.4598 5.60638 2.44172" fill="#504DE2"/>
<path fill-rule="evenodd" clip-rule="evenodd" d="M3.2384 13.3614C5.5858 12.7327 7.92272 12.1144 10.2596 11.4751C10.7103 13.2671 11.2237 15.0486 11.6953 16.8406L12.0411 18.1191C12.1983 18.7688 11.9154 18.6221 11.3181 18.8003C10.4168 19.0727 9.51559 19.3137 8.60388 19.5548L5.96306 20.2359C5.37621 20.3826 5.19806 20.6446 4.97799 20.0473C4.75792 19.45 4.716 19.1775 4.60073 18.7269C4.15011 16.9349 3.68902 15.1534 3.2384 13.3614" fill="#504DE2"/>
<path fill-rule="evenodd" clip-rule="evenodd" d="M1.40411 22.5727C2.70357 22.2898 3.9611 21.8182 5.26055 21.5248L6.00459 21.3466C6.59144 21.2104 6.59144 21.116 6.74863 21.7134C6.90582 22.3107 7.05253 23.0443 7.2726 23.7045C7.49267 24.3647 7.54507 24.9096 7.74418 25.4965C7.80706 25.6746 8.05856 26.3139 7.90137 26.3663C7.53459 26.492 7.16781 26.5968 6.79055 26.6911C5.45602 26.9703 4.13724 27.3201 2.8398 27.7391C2.27391 26.0309 1.98048 24.2494 1.40411 22.4993" fill="#504DE2"/>
<path fill-rule="evenodd" clip-rule="evenodd" d="M0 30.4741L1.61384 30.055C1.85486 29.9921 3.03904 29.51 3.23815 29.6358C3.43726 29.7615 3.59446 30.9143 3.65733 31.1448C3.825 31.7317 3.98219 32.3081 4.14986 32.8844L0.848837 33.7123C0.848837 33.7123 0.0838356 30.799 0 30.4741" fill="#504DE2"/>
<path fill-rule="evenodd" clip-rule="evenodd" d="M18.1712 5.51217L27.1521 3.1019C27.5398 4.61094 27.9276 6.11998 28.3258 7.62902C28.5878 8.67696 28.8603 9.72491 29.1222 10.7729C29.1746 10.972 29.6043 11.999 29.489 12.1876C29.3737 12.3762 28.2839 12.5125 28.0848 12.5648L25.0038 13.3927L20.5081 14.6083C19.7257 11.5833 18.9467 8.56169 18.1712 5.54361" fill="#504DE2"/>
<path fill-rule="evenodd" clip-rule="evenodd" d="M15.625 16.4632C18.0038 15.8659 20.3512 15.1638 22.7196 14.5769C23.3169 16.9453 23.9981 19.3032 24.5954 21.682C24.5954 21.682 18.182 23.4635 17.5113 23.6312C16.914 21.2314 16.2223 18.863 15.625 16.4632" fill="#504DE2"/>
<path fill-rule="evenodd" clip-rule="evenodd" d="M13.8119 25.6747C15.5306 25.245 17.2282 24.742 18.9469 24.3123C19.2298 25.6118 19.6909 26.8693 19.9948 28.1583C20.1834 28.9862 20.5921 29.4577 19.6909 29.6673C19.0202 29.8245 18.3915 30.0446 17.7313 30.2018C17.071 30.359 16.4737 30.5476 15.8345 30.7258C15.4991 30.8306 15.1952 31.0192 15.1114 30.6419C15.0276 30.2647 14.8913 29.9503 14.7865 29.594C14.3988 28.3155 14.0949 26.9741 13.8015 25.6747" fill="#504DE2"/>
<path fill-rule="evenodd" clip-rule="evenodd" d="M12.3762 33.6705L15.6249 32.7693C15.7611 33.2723 15.9078 33.8172 16.044 34.2783C16.1174 34.5298 16.6623 35.7769 16.5261 36.0179C16.3899 36.2589 15.2476 36.3742 15.017 36.4371L13.2775 36.9191C12.984 35.8712 12.6801 34.7604 12.3762 33.6705" fill="#504DE2"/>
<path fill-rule="evenodd" clip-rule="evenodd" d="M30.4951 8.68748L34.9908 7.47187L38.0718 6.644C38.2709 6.5916 39.2874 6.16194 39.476 6.26674C39.6646 6.37153 39.8009 7.47187 39.8533 7.67098C40.1362 8.71892 40.4087 9.76686 40.6916 10.8148C41.0898 12.3134 41.4881 13.8119 41.8968 15.3L37.4011 16.5156L34.3201 17.3435C34.121 17.3959 33.1045 17.8255 32.9159 17.7207C32.7272 17.616 32.591 16.5156 32.5386 16.3165C32.2557 15.2686 31.9832 14.2206 31.7003 13.1727C31.302 11.6741 30.8933 10.186 30.4951 8.68748" fill="#504DE2"/>
<path fill-rule="evenodd" clip-rule="evenodd" d="M28.0013 19.628C29.196 19.3346 30.3697 18.9888 31.5539 18.6534C32.1512 18.4753 32.759 18.3495 33.3668 18.1923C33.6079 18.1295 34.9073 17.6265 35.1064 17.7417C35.3326 18.2992 35.4841 18.8841 35.557 19.4813C35.7037 20.0996 35.9028 20.6865 36.081 21.2943C36.2592 21.9021 36.3849 22.447 36.5316 23.0338C36.6155 23.3378 37.1394 24.5953 36.9927 24.8363C36.4334 25.059 35.8493 25.2138 35.2531 25.2974C34.6558 25.4546 34.0375 25.5699 33.4402 25.748C32.8429 25.9262 32.2874 26.1253 31.7006 26.272C31.1177 26.5002 30.5087 26.6551 29.8876 26.7331C29.6735 26.1717 29.5223 25.5883 29.437 24.9935C29.2798 24.3857 29.1331 23.7884 28.9864 23.1806C28.693 21.9859 28.3052 20.8227 28.0013 19.628" fill="#504DE2"/>
<path fill-rule="evenodd" clip-rule="evenodd" d="M26.1881 28.8395C27.8753 28.284 29.6673 28.0325 31.323 27.4038C31.8994 29.1224 32.1928 30.9039 32.7587 32.6435C31.0401 33.0312 29.3529 33.6076 27.6238 33.9953C27.54 33.9953 26.3139 29.3739 26.1881 28.8709" fill="#504DE2"/>
<path fill-rule="evenodd" clip-rule="evenodd" d="M24.8364 36.7619L28.085 35.8502L28.4937 37.4745C28.5566 37.705 29.0387 38.8892 28.9129 39.0988C28.7872 39.3084 27.6344 39.4551 27.4039 39.518L25.6643 40C25.3918 38.9521 25.1089 37.8412 24.8364 36.7619" fill="#504DE2"/>
</svg>
